<?xml version="1.0" standalone="no"?>
<!DOCTYPE svg PUBLIC "-//W3C//DTD SVG 20010904//EN"
 "http://www.w3.org/TR/2001/REC-SVG-20010904/DTD/svg10.dtd">
<svg version="1.0" xmlns="http://www.w3.org/2000/svg"
 width="1267.000000pt" height="1280.000000pt" viewBox="0 0 1267.000000 1280.000000"
 preserveAspectRatio="xMidYMid meet">
<g transform="translate(0.000000,1280.000000) scale(0.100000,-0.100000)"
fill="#000000" stroke="none">
<path d="M6170 12789 c-30 -5 -99 -16 -153 -25 -274 -43 -501 -152 -686 -329
-210 -201 -355 -466 -420 -766 -45 -211 -44 -172 -50 -2024 l-6 -1770 -1770
-5 c-1602 -5 -1779 -7 -1867 -23 -328 -56 -564 -163 -775 -349 -178 -156 -296
-347 -368 -594 -31 -106 -75 -390 -75 -490 0 -69 27 -275 50 -380 74 -337 295
-663 583 -855 144 -96 270 -153 442 -200 207 -56 85 -52 2005 -58 l1775 -6 6
-1765 c5 -1559 7 -1777 21 -1871 91 -594 387 -995 867 -1176 197 -74 557 -120
725 -93 33 5 107 17 164 26 141 21 259 57 379 114 141 67 241 138 353 250 221
221 363 514 410 845 6 44 14 91 17 105 4 14 9 822 12 1795 l6 1770 1775 6
c1243 4 1795 9 1843 17 353 58 618 185 832 398 223 222 332 462 385 849 22
167 25 262 9 368 -45 310 -66 390 -139 543 -79 167 -165 280 -308 407 -209
184 -441 289 -757 344 -91 16 -251 18 -1870 23 l-1770 5 -6 1770 c-4 1277 -9
1791 -17 1845 -60 383 -182 648 -408 889 -215 228 -454 346 -810 397 -133 20
-330 26 -404 13z"/>
</g>
</svg>
